<svg width="20" height="20" viewBox="0 0 20 20" fill="none" xmlns="http://www.w3.org/2000/svg">
<path d="M14.1641 4.99935H18.3307V6.66602H16.6641V17.4993C16.6641 17.9596 16.291 18.3327 15.8307 18.3327H4.16406C3.70383 18.3327 3.33073 17.9596 3.33073 17.4993V6.66602H1.66406V4.99935H5.83073V2.49935C5.83073 2.03912 6.20383 1.66602 6.66406 1.66602H13.3307C13.791 1.66602 14.1641 2.03912 14.1641 2.49935V4.99935ZM14.9974 6.66602H4.9974V16.666H14.9974V6.66602ZM11.1759 11.6658L12.6491 13.1389L11.4706 14.3174L9.9974 12.8443L8.52423 14.3174L7.34575 13.1389L8.8189 11.6658L7.34575 10.1927L8.52423 9.01418L9.9974 10.4873L11.4706 9.01418L12.6491 10.1927L11.1759 11.6658ZM7.4974 3.33268V4.99935H12.4974V3.33268H7.4974Z" fill="#EB3173"/>
</svg>
