<svg width="41" height="42" viewBox="0 0 41 42" fill="none" xmlns="http://www.w3.org/2000/svg">
<rect x="0.234375" y="0.916016" width="40.4398" height="40.4398" rx="20.2199" fill="#F7F9FA"/>
<path d="M27.4901 18.2681H24.8952C23.7743 18.2681 23.1035 17.5974 23.1035 16.4764V13.8815C23.1035 12.7606 23.7743 12.0898 24.8952 12.0898H27.4901C28.611 12.0898 29.2818 12.7606 29.2818 13.8815V16.4764C29.2818 17.5974 28.611 18.2681 27.4901 18.2681ZM27.6843 15.3467C27.5784 15.2408 27.4371 15.1878 27.2959 15.1878C27.1547 15.1878 27.0135 15.2408 26.9076 15.3467L26.7487 15.5056V13.5285C26.7487 13.2196 26.5016 12.9725 26.1927 12.9725C25.8837 12.9725 25.6366 13.2196 25.6366 13.5285V15.5056L25.4777 15.3467C25.2659 15.1349 24.9129 15.1349 24.701 15.3467C24.4892 15.5585 24.4892 15.9116 24.701 16.1234L25.8043 17.2267C25.8484 17.2708 25.9102 17.3061 25.972 17.3326C25.9897 17.3414 26.0073 17.3414 26.025 17.3502C26.0691 17.3679 26.1132 17.3767 26.1662 17.3767C26.1838 17.3767 26.2015 17.3767 26.2191 17.3767C26.2809 17.3767 26.3339 17.3679 26.3957 17.3414C26.4045 17.3414 26.4045 17.3414 26.4133 17.3414C26.4751 17.3149 26.5281 17.2796 26.5722 17.2355C26.581 17.2267 26.581 17.2267 26.5898 17.2267L27.6931 16.1234C27.9049 15.9116 27.9049 15.5585 27.6843 15.3467Z" fill="black"/>
<path d="M11.6289 20.6598V25.0728C11.6289 27.094 13.2617 28.7268 15.2829 28.7268H25.6183C27.6395 28.7268 29.2812 27.0852 29.2812 25.064V20.6598C29.2812 20.0684 28.8046 19.5918 28.2132 19.5918H12.6969C12.1055 19.5918 11.6289 20.0684 11.6289 20.6598ZM16.9246 25.7701H15.1594C14.7975 25.7701 14.4974 25.47 14.4974 25.1081C14.4974 24.7463 14.7975 24.4462 15.1594 24.4462H16.9246C17.2865 24.4462 17.5865 24.7463 17.5865 25.1081C17.5865 25.47 17.2865 25.7701 16.9246 25.7701ZM22.6616 25.7701H19.1311C18.7693 25.7701 18.4692 25.47 18.4692 25.1081C18.4692 24.7463 18.7693 24.4462 19.1311 24.4462H22.6616C23.0234 24.4462 23.3235 24.7463 23.3235 25.1081C23.3235 25.47 23.0234 25.7701 22.6616 25.7701Z" fill="black"/>
<path d="M21.779 14.6129V17.1989C21.779 17.7903 21.3024 18.2669 20.711 18.2669H12.6969C12.0967 18.2669 11.6289 17.7726 11.6289 17.1813C11.6377 16.1839 12.0349 15.2748 12.6969 14.6129C13.3588 13.9509 14.2767 13.5449 15.2829 13.5449H20.711C21.3024 13.5449 21.779 14.0215 21.779 14.6129Z" fill="black"/>
</svg>
