<svg width="38" height="38" viewBox="0 0 38 38" fill="none" xmlns="http://www.w3.org/2000/svg">
<g clip-path="url(#clip0_55_2326)">
<path d="M18.7608 19.8417L25.2814 26.3608L23.1068 28.5354L20.2976 25.7261V34.3091H17.224V25.7231L14.4147 28.5354L12.2402 26.3608L18.7608 19.8417ZM18.7608 3.57324C21.3994 3.57337 23.946 4.54313 25.9164 6.29816C27.8868 8.05319 29.1435 10.4711 29.4477 13.0921C31.3598 13.6136 33.028 14.7905 34.1605 16.417C35.293 18.0436 35.8179 20.0165 35.6434 21.9908C35.4689 23.9651 34.6062 25.8153 33.206 27.2181C31.8057 28.6208 29.9571 29.4869 27.9831 29.6649V26.5698C28.6903 26.4688 29.3703 26.228 29.9834 25.8613C30.5964 25.4947 31.1304 25.0096 31.5539 24.4343C31.9775 23.8591 32.2822 23.2052 32.4503 22.5109C32.6185 21.8166 32.6466 21.0958 32.5331 20.3905C32.4196 19.6852 32.1667 19.0096 31.7893 18.4031C31.4118 17.7966 30.9174 17.2713 30.3347 16.858C29.752 16.4447 29.0929 16.1516 28.3957 15.9958C27.6986 15.84 26.9773 15.8246 26.2742 15.9506C26.5148 14.8301 26.5018 13.6699 26.2361 12.5551C25.9703 11.4403 25.4586 10.399 24.7383 9.50762C24.018 8.61619 23.1074 7.89718 22.0733 7.40323C21.0392 6.90929 19.9076 6.65293 18.7615 6.65293C17.6155 6.65293 16.484 6.90929 15.4498 7.40323C14.4157 7.89718 13.5051 8.61619 12.7848 9.50762C12.0645 10.399 11.5528 11.4403 11.287 12.5551C11.0213 13.6699 11.0083 14.8301 11.2489 15.9506C9.84685 15.6873 8.39759 15.9917 7.21999 16.797C6.04238 17.6022 5.23289 18.8423 4.96959 20.2444C4.70629 21.6465 5.01075 23.0957 5.816 24.2733C6.62124 25.4509 7.86131 26.2604 9.26339 26.5237L9.54002 26.5698V29.6649C7.56593 29.4872 5.7171 28.6213 4.31666 27.2187C2.91622 25.816 2.05326 23.9658 1.8786 21.9915C1.70394 20.0171 2.22869 18.0441 3.36113 16.4174C4.49358 14.7907 6.16169 13.6137 8.07392 13.0921C8.37775 10.471 9.63439 8.05286 11.6048 6.29777C13.5753 4.54268 16.122 3.57303 18.7608 3.57324Z" fill="black"/>
</g>
<defs>
<clipPath id="clip0_55_2326">
<rect width="36.8831" height="36.8831" fill="white" transform="translate(0.322266 0.499023)"/>
</clipPath>
</defs>
</svg>
