<svg width="42" height="42" viewBox="0 0 42 42" fill="none" xmlns="http://www.w3.org/2000/svg">
<rect x="0.802734" y="0.916016" width="40.4398" height="40.4398" rx="20.2199" fill="#F7F9FA"/>
<path d="M18.1767 22.8082V25.5332H23.6267V22.8082H29.985V29.1665C29.985 29.6682 29.5784 30.0749 29.0767 30.0749H12.7267C12.225 30.0749 11.8184 29.6682 11.8184 29.1665V22.8082H18.1767ZM19.9934 20.9915H21.81V23.7165H19.9934V20.9915ZM16.36 15.5415V12.8165C16.36 12.3149 16.7667 11.9082 17.2684 11.9082H24.535C25.0367 11.9082 25.4434 12.3149 25.4434 12.8165V15.5415H29.0767C29.5784 15.5415 29.985 15.9482 29.985 16.4499V20.9915H23.6267V19.1749H18.1767V20.9915H11.8184V16.4499C11.8184 15.9482 12.225 15.5415 12.7267 15.5415H16.36ZM18.1767 13.7249V15.5415H23.6267V13.7249H18.1767Z" fill="black"/>
</svg>
