<svg width="18" height="18" viewBox="0 0 18 18" fill="none" xmlns="http://www.w3.org/2000/svg">
<path d="M4.83073 4.16732V1.66732C4.83073 1.20708 5.20383 0.833984 5.66406 0.833984H12.3307C12.791 0.833984 13.1641 1.20708 13.1641 1.66732V4.16732H16.4974C16.9576 4.16732 17.3307 4.54042 17.3307 5.00065V16.6673C17.3307 17.1276 16.9576 17.5007 16.4974 17.5007H1.4974C1.03716 17.5007 0.664062 17.1276 0.664062 16.6673V5.00065C0.664062 4.54042 1.03716 4.16732 1.4974 4.16732H4.83073ZM6.4974 10.834H2.33073V15.834H15.6641V10.834H11.4974V13.334H6.4974V10.834ZM15.6641 5.83398H2.33073V9.16732H6.4974V7.50065H11.4974V9.16732H15.6641V5.83398ZM8.16406 9.16732V11.6673H9.83073V9.16732H8.16406ZM6.4974 2.50065V4.16732H11.4974V2.50065H6.4974Z" fill="#4F4F4F"/>
</svg>
