<svg width="20" height="20" viewBox="0 0 20 20" fill="none" xmlns="http://www.w3.org/2000/svg">
<path d="M18.3386 5.83333H19.1719V14.1667H18.3386V16.6667C18.3386 17.1269 17.9655 17.5 17.5052 17.5H2.50521C2.04497 17.5 1.67188 17.1269 1.67188 16.6667V3.33333C1.67188 2.8731 2.04497 2.5 2.50521 2.5H17.5052C17.9655 2.5 18.3386 2.8731 18.3386 3.33333V5.83333ZM16.6719 14.1667H11.6719C9.37072 14.1667 7.50521 12.3012 7.50521 10C7.50521 7.69882 9.37072 5.83333 11.6719 5.83333H16.6719V4.16667H3.33854V15.8333H16.6719V14.1667ZM17.5052 12.5V7.5H11.6719C10.2911 7.5 9.17189 8.61925 9.17189 10C9.17189 11.3807 10.2911 12.5 11.6719 12.5H17.5052ZM11.6719 9.16667H14.1719V10.8333H11.6719V9.16667Z" fill="#4F4F4F"/>
</svg>
