<svg width="20" height="20" viewBox="0 0 20 20" fill="none" xmlns="http://www.w3.org/2000/svg">
<path d="M9.99935 18.3337C5.39697 18.3337 1.66602 14.6027 1.66602 10.0003C1.66602 5.39795 5.39697 1.66699 9.99935 1.66699C14.6017 1.66699 18.3327 5.39795 18.3327 10.0003C18.3327 14.6027 14.6017 18.3337 9.99935 18.3337ZM9.99935 16.667C13.6813 16.667 16.666 13.6822 16.666 10.0003C16.666 6.31843 13.6813 3.33366 9.99935 3.33366C6.31745 3.33366 3.33268 6.31843 3.33268 10.0003C3.33268 13.6822 6.31745 16.667 9.99935 16.667ZM9.16602 12.5003H10.8327V14.167H9.16602V12.5003ZM10.8327 11.1296V11.667H9.16602V10.417C9.16602 9.95674 9.5391 9.58366 9.99935 9.58366C10.6897 9.58366 11.2493 9.02399 11.2493 8.33366C11.2493 7.6433 10.6897 7.08366 9.99935 7.08366C9.39293 7.08366 8.88735 7.51552 8.77335 8.08847L7.13877 7.76154C7.40466 6.42465 8.58435 5.41699 9.99935 5.41699C11.6102 5.41699 12.916 6.72283 12.916 8.33366C12.916 9.65491 12.0374 10.771 10.8327 11.1296Z" fill="#4F4F4F"/>
</svg>
