<svg width="41" height="42" viewBox="0 0 41 42" fill="none" xmlns="http://www.w3.org/2000/svg">
<rect x="0.109375" y="0.916016" width="40.4398" height="40.4398" rx="20.2199" fill="#F8F8F8"/>
<path d="M18.7812 19.3974C18.7812 19.874 18.9136 19.9446 19.2137 20.0506L19.6639 20.2094V18.709H19.3991C19.0637 18.709 18.7812 19.0179 18.7812 19.3974Z" fill="black"/>
<path d="M20.9902 23.5639H21.255C21.5992 23.5639 21.8728 23.255 21.8728 22.8755C21.8728 22.3989 21.7405 22.3283 21.4404 22.2223L20.9902 22.0635V23.5639Z" fill="black"/>
<path d="M27.0163 15.3811L25.207 17.1904C25.0746 17.3228 24.9069 17.3846 24.7392 17.3846C24.5715 17.3846 24.4038 17.3228 24.2714 17.1904C24.0155 16.9345 24.0155 16.5108 24.2714 16.2549L26.0808 14.4455C24.5274 13.1216 22.5238 12.3096 20.3261 12.3096C15.4541 12.3096 11.5 16.2637 11.5 21.1357C11.5 26.0077 15.4541 29.9618 20.3261 29.9618C25.1982 29.9618 29.1523 26.0077 29.1523 21.1357C29.1523 18.938 28.3403 16.9345 27.0163 15.3811ZM21.8707 20.9768C22.4356 21.1798 23.1946 21.5858 23.1946 22.8833C23.1946 23.9866 22.3208 24.8956 21.2529 24.8956H20.9881V25.1163C20.9881 25.4782 20.688 25.7783 20.3261 25.7783C19.9643 25.7783 19.6642 25.4782 19.6642 25.1163V24.8956H19.5936C18.4197 24.8956 17.4576 23.9071 17.4576 22.6891C17.4576 22.3184 17.7577 22.0183 18.1196 22.0183C18.4815 22.0183 18.7816 22.3184 18.7816 22.6803C18.7816 23.1657 19.1434 23.5629 19.5936 23.5629H19.6642V21.6035L18.7816 21.2946C18.2167 21.0916 17.4576 20.6856 17.4576 19.3881C17.4576 18.2849 18.3314 17.3758 19.3994 17.3758H19.6642V17.1639C19.6642 16.8021 19.9643 16.502 20.3261 16.502C20.688 16.502 20.9881 16.8021 20.9881 17.1639V17.3846H21.0587C22.2326 17.3846 23.1946 18.3731 23.1946 19.5911C23.1946 19.953 22.8945 20.2531 22.5327 20.2531C22.1708 20.2531 21.8707 19.953 21.8707 19.5911C21.8707 19.1057 21.5088 18.7085 21.0587 18.7085H20.9881V20.6679L21.8707 20.9768Z" fill="black"/>
<path d="M29.7624 12.0535C29.6917 11.8946 29.5682 11.7622 29.4005 11.6916C29.321 11.6651 29.2416 11.6475 29.1534 11.6475H25.6229C25.261 11.6475 24.9609 11.9475 24.9609 12.3094C24.9609 12.6713 25.261 12.9714 25.6229 12.9714H27.5558L26.0819 14.4453C26.4173 14.7366 26.7262 15.0455 27.0174 15.3809L28.4914 13.907V15.8399C28.4914 16.2017 28.7915 16.5018 29.1534 16.5018C29.5152 16.5018 29.8153 16.2017 29.8153 15.8399V12.3094C29.8153 12.2212 29.7977 12.1417 29.7624 12.0535Z" fill="url(#paint0_linear_160_5517)"/>
<defs>
<linearGradient id="paint0_linear_160_5517" x1="36.2143" y1="5.24882" x2="27.3881" y2="16.5018" gradientUnits="userSpaceOnUse">
<stop offset="0.707245"/>
<stop offset="1" stop-color="#BBBBBB" stop-opacity="0"/>
</linearGradient>
</defs>
</svg>
