<svg width="24" height="25" viewBox="0 0 24 25" fill="none" xmlns="http://www.w3.org/2000/svg">
<g clip-path="url(#clip0_55_1698)">
<path d="M23.6105 12.5323C23.6105 11.5608 23.5317 10.8519 23.3611 10.1167H12.2676V14.5015H18.7792C18.648 15.5912 17.939 17.2323 16.3636 18.335L16.3415 18.4818L19.8491 21.1991L20.0921 21.2233C22.3239 19.1621 23.6105 16.1295 23.6105 12.5323Z" fill="#4285F4"/>
<path d="M12.2682 24.0837C15.4583 24.0837 18.1365 23.0334 20.0927 21.2217L16.3642 18.3334C15.3665 19.0292 14.0273 19.5149 12.2682 19.5149C9.14362 19.5149 6.4917 17.4538 5.54636 14.605L5.4078 14.6167L1.76059 17.4394L1.71289 17.5719C3.65587 21.4317 7.64692 24.0837 12.2682 24.0837Z" fill="#34A853"/>
<path d="M5.54885 14.6079C5.29941 13.8727 5.15506 13.085 5.15506 12.2711C5.15506 11.4571 5.29941 10.6694 5.53572 9.9342L5.52912 9.77762L1.8362 6.90967L1.71537 6.96714C0.914577 8.56882 0.455078 10.3675 0.455078 12.2711C0.455078 14.1747 0.914577 15.9732 1.71537 17.5749L5.54885 14.6079Z" fill="#FBBC05"/>
<path d="M12.2682 5.02324C14.4868 5.02324 15.9834 5.98161 16.8368 6.7825L20.1714 3.52664C18.1234 1.62302 15.4583 0.45459 12.2682 0.45459C7.64692 0.45459 3.65587 3.10651 1.71289 6.96623L5.53324 9.93329C6.4917 7.08443 9.14362 5.02324 12.2682 5.02324Z" fill="#EB4335"/>
</g>
<defs>
<clipPath id="clip0_55_1698">
<rect width="23.1585" height="23.6988" fill="white" transform="translate(0.455078 0.419434)"/>
</clipPath>
</defs>
</svg>
