<svg width="20" height="20" viewBox="0 0 20 20" fill="none" xmlns="http://www.w3.org/2000/svg">
<path d="M5.83073 4.16732V1.66732C5.83073 1.20708 6.20383 0.833984 6.66406 0.833984H13.3307C13.791 0.833984 14.1641 1.20708 14.1641 1.66732V4.16732H17.4974C17.9576 4.16732 18.3307 4.54042 18.3307 5.00065V16.6673C18.3307 17.1276 17.9576 17.5007 17.4974 17.5007H2.4974C2.03716 17.5007 1.66406 17.1276 1.66406 16.6673V5.00065C1.66406 4.54042 2.03716 4.16732 2.4974 4.16732H5.83073ZM7.4974 10.834H3.33073V15.834H16.6641V10.834H12.4974V13.334H7.4974V10.834ZM16.6641 5.83398H3.33073V9.16732H7.4974V7.50065H12.4974V9.16732H16.6641V5.83398ZM9.16406 9.16732V11.6673H10.8307V9.16732H9.16406ZM7.4974 2.50065V4.16732H12.4974V2.50065H7.4974Z" fill="white"/>
</svg>
