<svg width="20" height="20" viewBox="0 0 20 20" fill="none" xmlns="http://www.w3.org/2000/svg">
<path d="M2.78386 14.1674C2.42365 13.5435 2.15328 12.8924 1.96875 12.229C2.77914 11.8155 3.33407 10.9729 3.33407 10.0007C3.33407 9.02932 2.77997 8.18724 1.97058 7.77341C2.34285 6.43099 3.04978 5.18079 4.05492 4.15891C4.81822 4.65404 5.82543 4.71335 6.66741 4.22724C7.50938 3.74112 7.96162 2.83919 7.91447 1.9306C9.30206 1.57107 10.7382 1.58394 12.0869 1.93275C12.0406 2.84062 12.4927 3.7415 13.3341 4.22724C14.1761 4.71334 15.1832 4.65404 15.9465 4.15896C16.4287 4.65045 16.8574 5.21016 17.2176 5.83408C17.5778 6.45799 17.8482 7.10911 18.0327 7.77247C17.2223 8.18596 16.6674 9.02857 16.6674 10.0007C16.6674 10.9722 17.2215 11.8142 18.0309 12.2281C17.6586 13.5705 16.9517 14.8207 15.9466 15.8426C15.1832 15.3475 14.1761 15.2882 13.3341 15.7742C12.4921 16.2603 12.0399 17.1623 12.087 18.0709C10.6995 18.4304 9.26331 18.4176 7.91458 18.0687C7.9609 17.1608 7.50872 16.26 6.66741 15.7742C5.82546 15.2882 4.8183 15.3474 4.05501 15.8425C3.57278 15.351 3.14407 14.7913 2.78386 14.1674ZM7.50074 14.3309C8.41022 14.856 9.06339 15.6862 9.37622 16.6388C9.79148 16.6783 10.2095 16.6789 10.6248 16.6402C10.9375 15.687 11.5908 14.8562 12.5007 14.3309C13.4106 13.8055 14.4568 13.6552 15.4386 13.8609C15.6798 13.5206 15.8883 13.1582 16.0617 12.7789C15.3931 12.0317 15.0007 11.0509 15.0007 10.0007C15.0007 8.95057 15.3931 7.9699 16.0617 7.22265C15.975 7.03432 15.8791 6.84909 15.7742 6.66741C15.6693 6.48573 15.5568 6.31014 15.4371 6.14092C14.4557 6.3462 13.4102 6.19569 12.5007 5.67061C11.5912 5.14553 10.9381 4.3153 10.6252 3.36269C10.2101 3.32319 9.79198 3.32262 9.37673 3.36134C9.06397 4.31449 8.41064 5.14527 7.50074 5.67061C6.59081 6.19596 5.54468 6.34635 4.56287 6.14059C4.32168 6.48091 4.11317 6.84321 3.93977 7.22254C4.60832 7.96983 5.00074 8.95057 5.00074 10.0007C5.00074 11.0509 4.60833 12.0316 3.93977 12.7788C4.02653 12.9672 4.12234 13.1524 4.22724 13.3341C4.33213 13.5157 4.44464 13.6913 4.56441 13.8606C5.54578 13.6553 6.59129 13.8058 7.50074 14.3309ZM10.0007 12.5007C8.62006 12.5007 7.50074 11.3815 7.50074 10.0007C7.50074 8.62007 8.62006 7.50074 10.0007 7.50074C11.3815 7.50074 12.5007 8.62007 12.5007 10.0007C12.5007 11.3815 11.3815 12.5007 10.0007 12.5007ZM10.0007 10.8341C10.461 10.8341 10.8341 10.461 10.8341 10.0007C10.8341 9.54049 10.461 9.1674 10.0007 9.1674C9.54047 9.1674 9.16739 9.54049 9.16739 10.0007C9.16739 10.461 9.54047 10.8341 10.0007 10.8341Z" fill="white"/>
</svg>
