<svg width="50" height="50" viewBox="0 0 50 50" fill="none" xmlns="http://www.w3.org/2000/svg">
<path d="M37.4974 20.8327C37.4974 13.9291 31.9009 8.33268 24.9974 8.33268C18.0938 8.33268 12.4974 13.9291 12.4974 20.8327V37.4994H37.4974V20.8327ZM41.6641 38.8883L42.4974 39.9994C42.8426 40.4596 42.7493 41.1125 42.2891 41.4577C42.1089 41.5929 41.8895 41.666 41.6641 41.666H8.33073C7.75544 41.666 7.28906 41.1996 7.28906 40.6244C7.28906 40.3989 7.36217 40.1796 7.4974 39.9994L8.33073 38.8883V20.8327C8.33073 11.6279 15.7926 4.16602 24.9974 4.16602C34.2022 4.16602 41.6641 11.6279 41.6641 20.8327V38.8883ZM19.7891 43.7494H30.2057C30.2057 46.6258 27.8739 48.9577 24.9974 48.9577C22.1209 48.9577 19.7891 46.6258 19.7891 43.7494Z" fill="#4F4F4F"/>
</svg>
