<svg width="25" height="26" viewBox="0 0 25 26" fill="none" xmlns="http://www.w3.org/2000/svg">
<path d="M18.7526 10.9173C18.7526 7.46554 15.9544 4.66732 12.5026 4.66732C9.05082 4.66732 6.2526 7.46554 6.2526 10.9173V19.2507H18.7526V10.9173ZM20.8359 19.9451L21.2526 20.5007C21.4252 20.7308 21.3785 21.0572 21.1484 21.2298C21.0583 21.2974 20.9486 21.334 20.8359 21.334H4.16927C3.88162 21.334 3.64844 21.1008 3.64844 20.8132C3.64844 20.7004 3.68499 20.5908 3.7526 20.5007L4.16927 19.9451V10.9173C4.16927 6.31494 7.90023 2.58398 12.5026 2.58398C17.105 2.58398 20.8359 6.31494 20.8359 10.9173V19.9451ZM9.89844 22.3757H15.1068C15.1068 23.8139 13.9408 24.9798 12.5026 24.9798C11.0644 24.9798 9.89844 23.8139 9.89844 22.3757Z" fill="black"/>
</svg>
