<svg width="33" height="33" viewBox="0 0 33 33" fill="none" xmlns="http://www.w3.org/2000/svg">
<path d="M20.3898 10.1938L9.77445 20.9875C9.42302 21.3754 9.23419 21.8836 9.24708 22.4068C9.25996 22.93 9.47356 23.4283 9.84366 23.7984C10.2138 24.1685 10.712 24.3821 11.2352 24.395C11.7585 24.4078 12.2666 24.219 12.6545 23.8676L25.3088 11.0348C26.0117 10.2591 26.3894 9.24279 26.3636 8.19632C26.3378 7.14984 25.9106 6.15335 25.1704 5.41315C24.4302 4.67296 23.4338 4.24575 22.3873 4.21999C21.3408 4.19422 20.3245 4.57187 19.5488 5.27474L6.89441 18.1075C5.74866 19.2533 5.10498 20.8072 5.10498 22.4276C5.10498 24.0479 5.74866 25.6019 6.89441 26.7476C8.04016 27.8934 9.59414 28.5371 11.2145 28.5371C12.8348 28.5371 14.3888 27.8934 15.5345 26.7476L25.997 16.3107" stroke="#616161" stroke-width="2.03897" stroke-linecap="round" stroke-linejoin="round"/>
</svg>
