<svg width="50" height="50" viewBox="0 0 50 50" fill="none" xmlns="http://www.w3.org/2000/svg">
<path d="M25 2.08398L42.1185 5.88811C43.0719 6.09994 43.75 6.94538 43.75 7.92184V28.7275C43.75 32.9069 41.6612 36.8098 38.1837 39.1282L25 47.9173L11.8162 39.1282C8.33877 36.8098 6.25 32.9069 6.25 28.7275V7.92184C6.25 6.94538 6.92819 6.09994 7.8814 5.88811L25 2.08398ZM25 6.3523L10.4167 9.59303V28.7275C10.4167 31.5138 11.8092 34.1157 14.1275 35.6613L25 42.9096L35.8725 35.6613C38.1908 34.1157 39.5833 31.5138 39.5833 28.7275V9.59303L25 6.3523ZM25 14.584C27.3012 14.584 29.1667 16.4495 29.1667 18.7507C29.1667 20.292 28.3298 21.6377 27.0856 22.3586L27.0833 31.2507H22.9167L22.9165 22.3598C21.6712 21.6394 20.8333 20.2928 20.8333 18.7507C20.8333 16.4495 22.6987 14.584 25 14.584Z" fill="#4F4F4F"/>
</svg>
