<svg width="27" height="27" viewBox="0 0 27 27" fill="none" xmlns="http://www.w3.org/2000/svg">
<g clip-path="url(#clip0_3_25092)">
<path d="M1.76709 13.271C2.77555 7.77808 7.58936 3.61548 13.3741 3.61548C19.1588 3.61548 23.9715 7.77808 24.9811 13.271C23.9726 18.7639 19.1588 22.9265 13.3741 22.9265C7.58936 22.9265 2.77663 18.7639 1.76709 13.271ZM13.3741 18.6352C14.7968 18.6352 16.1612 18.07 17.1671 17.064C18.1731 16.0581 18.7383 14.6937 18.7383 13.271C18.7383 11.8483 18.1731 10.4839 17.1671 9.47795C16.1612 8.47197 14.7968 7.90682 13.3741 7.90682C11.9514 7.90682 10.587 8.47197 9.58104 9.47795C8.57507 10.4839 8.00991 11.8483 8.00991 13.271C8.00991 14.6937 8.57507 16.0581 9.58104 17.064C10.587 18.07 11.9514 18.6352 13.3741 18.6352ZM13.3741 16.4895C12.5205 16.4895 11.7018 16.1504 11.0983 15.5468C10.4947 14.9432 10.1556 14.1246 10.1556 13.271C10.1556 12.4174 10.4947 11.5988 11.0983 10.9952C11.7018 10.3916 12.5205 10.0525 13.3741 10.0525C14.2277 10.0525 15.0463 10.3916 15.6499 10.9952C16.2535 11.5988 16.5926 12.4174 16.5926 13.271C16.5926 14.1246 16.2535 14.9432 15.6499 15.5468C15.0463 16.1504 14.2277 16.4895 13.3741 16.4895Z" fill="black"/>
</g>
<defs>
<clipPath id="clip0_3_25092">
<rect width="25.748" height="25.748" fill="white" transform="translate(0.5 0.396973)"/>
</clipPath>
</defs>
</svg>
