<svg width="50" height="50" viewBox="0 0 50 50" fill="none" xmlns="http://www.w3.org/2000/svg">
<path d="M22.9265 4.16699L38.1313 8.91847C39.0009 9.19026 39.5931 9.99576 39.5931 10.907V14.5837H43.7598C44.9104 14.5837 45.8431 15.5164 45.8431 16.667V33.3337C45.8431 34.4843 44.9104 35.417 43.7598 35.417L37.0513 35.4193C36.2458 36.4812 35.2654 37.4207 34.1348 38.1916L22.9265 45.8337L11.7181 38.1916C8.30299 35.863 6.25977 31.997 6.25977 27.8637V10.907C6.25977 9.99576 6.85195 9.19026 7.7217 8.91847L22.9265 4.16699ZM22.9265 8.52949L10.4264 12.4378V27.8637C10.4264 30.4572 11.6331 32.8928 13.6731 34.4645L14.0653 34.7489L22.9265 40.7899L30.8056 35.417H20.8431C19.6925 35.417 18.7598 34.4843 18.7598 33.3337V16.667C18.7598 15.5164 19.6925 14.5837 20.8431 14.5837H35.4265V12.4378L22.9265 8.52949ZM22.9265 25.0003V31.2503H41.6765V25.0003H22.9265ZM22.9265 20.8337H41.6765V18.7503H22.9265V20.8337Z" fill="#4F4F4F"/>
</svg>
