<svg width="368" height="144" viewBox="0 0 368 144" fill="none" xmlns="http://www.w3.org/2000/svg">
<rect x="1.12987" y="1.02049" width="365.438" height="141.384" rx="6.95205" fill="#F8F8FD"/>
<rect x="1.12987" y="1.02049" width="365.438" height="141.384" rx="6.95205" stroke="black" stroke-width="1.9863" stroke-dasharray="11.92 11.92"/>
<g clip-path="url(#clip0_181_15705)">
<path d="M187.822 34.7305H187.836" stroke="black" stroke-width="1.9863" stroke-linecap="round" stroke-linejoin="round"/>
<path d="M190.47 29.4336H177.228C175.034 29.4336 173.256 31.2122 173.256 33.4062V46.6482C173.256 48.8422 175.034 50.6208 177.228 50.6208H190.47C192.664 50.6208 194.443 48.8422 194.443 46.6482V33.4062C194.443 31.2122 192.664 29.4336 190.47 29.4336Z" stroke="black" stroke-width="1.9863" stroke-linecap="round" stroke-linejoin="round"/>
<path d="M173.256 43.9993L178.553 38.7025C179.157 38.1214 179.842 37.8154 180.539 37.8154C181.236 37.8154 181.921 38.1214 182.525 38.7025L189.146 45.3235" stroke="black" stroke-width="1.9863" stroke-linecap="round" stroke-linejoin="round"/>
<path d="M186.498 42.6761L187.822 41.3519C188.426 40.7708 189.111 40.4648 189.809 40.4648C190.506 40.4648 191.191 40.7708 191.795 41.3519L194.443 44.0003" stroke="black" stroke-width="1.9863" stroke-linecap="round" stroke-linejoin="round"/>
</g>
<path d="M75.9336 81.7489C72.8136 81.7489 70.9256 79.5729 70.9256 76.2289C70.9256 72.8849 72.8136 70.7089 75.9336 70.7089C78.8136 70.7089 80.5576 72.3089 80.5576 74.8849V74.9809H78.7176V74.8849C78.7176 73.1249 77.9016 72.3729 75.8856 72.3729C73.6616 72.3729 72.7656 73.4449 72.7656 76.2289C72.7656 79.0129 73.6616 80.0849 75.8856 80.0849C77.9016 80.0849 78.7176 79.3329 78.7176 77.5729V77.4769H80.5576V77.5729C80.5576 80.1489 78.8136 81.7489 75.9336 81.7489ZM83.7537 81.5889H82.0257V70.8689H83.7537V81.5889ZM87.0636 72.6289H85.3516L85.3356 70.8689H87.0636V72.6289ZM87.0796 81.5889H85.3516V73.5889H87.0796V81.5889ZM92.1562 81.7649C89.6762 81.7649 88.2682 80.0849 88.2682 77.6209C88.2682 75.1409 89.7242 73.4769 92.2202 73.4769C94.3162 73.4769 95.7562 74.7729 95.7562 76.6769V76.8209H94.0442V76.7249C94.0442 75.5569 93.4362 75.0289 92.1082 75.0289C90.5722 75.0289 89.9802 75.8929 89.9802 77.6209C89.9802 79.3489 90.5722 80.1969 92.1082 80.1969C93.4362 80.1969 94.0442 79.6849 94.0442 78.5169V78.4209H95.7562V78.5649C95.7562 80.4529 94.3002 81.7649 92.1562 81.7649ZM98.8006 81.5889H97.0726V70.8689H98.8006V76.7889H100.369L102.497 73.6369H104.529L101.761 77.3969L104.481 81.5889H102.465L100.385 78.3409H98.8006V81.5889ZM111.822 81.5889C110.046 81.5889 109.118 80.9329 109.118 79.1409V75.0769H107.79V73.6369H109.15L109.518 71.6689H110.846V73.6369H113.246V75.0769H110.846V79.0609C110.846 79.8929 111.198 80.0369 112.27 80.0369H113.246V81.4449C112.91 81.5249 112.366 81.5889 111.822 81.5889ZM117.783 81.7489C115.335 81.7489 113.815 80.0849 113.815 77.6049C113.815 75.1409 115.335 73.4769 117.783 73.4769C120.215 73.4769 121.687 75.1409 121.687 77.6049C121.687 80.0849 120.215 81.7489 117.783 81.7489ZM117.783 80.2129C119.447 80.2129 120.023 79.3969 120.023 77.6049C120.023 75.8289 119.447 75.0129 117.783 75.0129C116.103 75.0129 115.511 75.8289 115.511 77.6049C115.511 79.3969 116.103 80.2129 117.783 80.2129ZM127.801 81.5889H126.073V73.5889H127.657V74.8529H127.737C128.057 74.1169 128.793 73.4769 129.961 73.4769C131.625 73.4769 132.265 74.6929 132.265 76.1809V76.7089H130.537V76.3889C130.537 75.3329 130.233 74.9489 129.225 74.9489C128.185 74.9489 127.801 75.3489 127.801 76.4049V81.5889ZM136.905 81.7489C134.281 81.7489 133.049 80.0849 133.049 77.6049C133.049 75.1409 134.521 73.4769 136.889 73.4769C139.033 73.4769 140.537 74.7569 140.537 76.9329C140.537 77.3489 140.489 77.7809 140.441 78.0209H134.665C134.729 79.4769 135.257 80.2129 136.921 80.2129C138.249 80.2129 138.761 79.7649 138.761 79.0449V78.9169H140.473V79.0609C140.473 80.6929 139.049 81.7489 136.905 81.7489ZM136.857 74.9329C135.353 74.9329 134.777 75.6369 134.681 76.8689H138.889C138.953 75.5089 138.217 74.9329 136.857 74.9329ZM143.564 84.3569H141.852V73.6369H143.42V74.9489H143.5C143.868 74.0209 144.78 73.4769 146.156 73.4769C148.396 73.4769 149.628 75.0929 149.628 77.6209C149.628 80.1329 148.428 81.7489 146.268 81.7489C144.844 81.7489 143.964 81.0929 143.612 80.3569H143.564V84.3569ZM143.564 78.3249C143.564 79.6529 144.332 80.2769 145.74 80.2769C147.26 80.2769 147.9 79.5729 147.9 77.6209C147.9 75.6529 147.276 74.9489 145.74 74.9489C144.332 74.9489 143.564 75.5729 143.564 76.9009V78.3249ZM152.738 81.5889H151.01V70.8689H152.738V81.5889ZM156.53 81.7489C155.106 81.7489 154.002 81.0129 154.002 79.6209C154.002 78.3089 154.962 77.6209 156.658 77.3809L159.442 76.9649V76.5329C159.442 75.3489 158.898 74.9969 157.65 74.9969C156.386 74.9969 155.89 75.3969 155.89 76.4529V76.6929H154.226V76.5329C154.226 74.7569 155.618 73.4769 157.746 73.4769C159.97 73.4769 161.09 74.8209 161.09 76.7569V81.5889H159.49V80.3409H159.41C158.946 81.0929 158.034 81.7489 156.53 81.7489ZM155.682 79.4929C155.682 80.1169 156.082 80.3729 157.09 80.3729C158.21 80.3729 159.442 79.9249 159.442 78.3249V78.1809L156.914 78.5649C156.002 78.6929 155.682 78.9009 155.682 79.4929ZM166.281 81.7649C163.801 81.7649 162.393 80.0849 162.393 77.6209C162.393 75.1409 163.849 73.4769 166.345 73.4769C168.441 73.4769 169.881 74.7729 169.881 76.6769V76.8209H168.169V76.7249C168.169 75.5569 167.561 75.0289 166.233 75.0289C164.697 75.0289 164.105 75.8929 164.105 77.6209C164.105 79.3489 164.697 80.1969 166.233 80.1969C167.561 80.1969 168.169 79.6849 168.169 78.5169V78.4209H169.881V78.5649C169.881 80.4529 168.425 81.7649 166.281 81.7649ZM174.796 81.7489C172.172 81.7489 170.94 80.0849 170.94 77.6049C170.94 75.1409 172.412 73.4769 174.78 73.4769C176.924 73.4769 178.428 74.7569 178.428 76.9329C178.428 77.3489 178.38 77.7809 178.332 78.0209H172.556C172.62 79.4769 173.148 80.2129 174.812 80.2129C176.14 80.2129 176.652 79.7649 176.652 79.0449V78.9169H178.364V79.0609C178.364 80.6929 176.94 81.7489 174.796 81.7489ZM174.748 74.9329C173.244 74.9329 172.668 75.6369 172.572 76.8689H176.78C176.844 75.5089 176.108 74.9329 174.748 74.9329Z" fill="black"/>
<path d="M186.406 81.7489C184.086 81.7489 182.566 80.0369 182.566 77.6369C182.566 75.2369 184.086 73.5249 186.406 73.5249C188.71 73.5249 190.182 75.2369 190.182 77.6369C190.182 80.0369 188.71 81.7489 186.406 81.7489ZM186.406 80.7249C188.31 80.7249 189.062 79.6049 189.062 77.6369C189.062 75.6689 188.31 74.5649 186.406 74.5649C184.47 74.5649 183.702 75.6689 183.702 77.6369C183.702 79.6049 184.47 80.7249 186.406 80.7249ZM192.726 81.5889H191.574V73.5889H192.614V74.9169H192.694C192.95 74.1809 193.718 73.5249 194.886 73.5249C196.518 73.5249 197.142 74.6929 197.142 76.0529V76.5009H195.99V76.2289C195.99 74.9969 195.606 74.5169 194.47 74.5169C193.238 74.5169 192.726 75.0769 192.726 76.3569V81.5889ZM204.554 81.7489C202.33 81.7489 201.082 80.1329 201.082 77.6369C201.082 75.1409 202.266 73.5249 204.426 73.5249C205.946 73.5249 206.922 74.3249 207.258 75.1889V70.8689H208.41V81.5889H207.386V80.0689H207.322C206.97 81.0609 206.042 81.7489 204.554 81.7489ZM202.234 77.6369C202.234 80.0529 203.178 80.7569 204.746 80.7569C206.314 80.7569 207.258 79.9409 207.258 78.3249V76.9649C207.258 75.3329 206.314 74.5169 204.746 74.5169C203.194 74.5169 202.234 75.2209 202.234 77.6369ZM211.351 81.5889H210.199V73.5889H211.239V74.9169H211.319C211.575 74.1809 212.343 73.5249 213.511 73.5249C215.143 73.5249 215.767 74.6929 215.767 76.0529V76.5009H214.615V76.2289C214.615 74.9969 214.231 74.5169 213.095 74.5169C211.863 74.5169 211.351 75.0769 211.351 76.3569V81.5889ZM218.89 81.7489C217.45 81.7489 216.362 81.0129 216.362 79.6849C216.362 78.3089 217.386 77.7009 219.114 77.4609L221.898 77.0769V76.5009C221.898 75.1089 221.306 74.5489 219.818 74.5489C218.378 74.5489 217.706 75.1089 217.706 76.3729V76.6129H216.602V76.4849C216.602 74.8369 217.866 73.5249 219.914 73.5249C222.026 73.5249 222.986 74.8849 222.986 76.6449V81.5889H221.946V80.1329L221.866 80.1169C221.402 81.0289 220.394 81.7489 218.89 81.7489ZM217.482 79.6049C217.482 80.4209 217.994 80.7889 219.21 80.7889C220.57 80.7889 221.898 80.0849 221.898 78.2129V77.9409L219.21 78.3249C217.946 78.5009 217.482 78.7569 217.482 79.6049ZM227.818 80.8849C225.642 80.8849 224.394 79.4449 224.394 77.2049C224.394 74.9649 225.626 73.5249 227.834 73.5249C229.226 73.5249 230.282 74.2129 230.634 75.2209H230.698V73.6849H231.722V81.2529C231.722 83.3969 230.346 84.4689 228.266 84.4689C226.25 84.4689 224.826 83.4129 224.826 81.5889H225.962C225.962 82.8849 226.618 83.4449 228.282 83.4449C229.978 83.4449 230.57 82.8369 230.57 81.2529V79.2369H230.554C230.186 80.1489 229.194 80.8849 227.818 80.8849ZM225.546 77.2049C225.546 79.3009 226.554 79.8929 228.09 79.8929C229.514 79.8929 230.57 79.0769 230.57 77.4449V76.9649C230.57 75.3329 229.498 74.5169 228.026 74.5169C226.522 74.5169 225.546 75.1249 225.546 77.2049ZM238.624 81.7489C237.184 81.7489 236.096 81.0129 236.096 79.6849C236.096 78.3089 237.12 77.7009 238.848 77.4609L241.632 77.0769V76.5009C241.632 75.1089 241.04 74.5489 239.552 74.5489C238.112 74.5489 237.44 75.1089 237.44 76.3729V76.6129H236.336V76.4849C236.336 74.8369 237.6 73.5249 239.648 73.5249C241.76 73.5249 242.72 74.8849 242.72 76.6449V81.5889H241.68V80.1329L241.6 80.1169C241.136 81.0289 240.128 81.7489 238.624 81.7489ZM237.216 79.6049C237.216 80.4209 237.728 80.7889 238.944 80.7889C240.304 80.7889 241.632 80.0849 241.632 78.2129V77.9409L238.944 78.3249C237.68 78.5009 237.216 78.7569 237.216 79.6049ZM245.632 81.5889H244.48V73.6849H245.52V75.3169H245.568C245.872 74.4849 246.768 73.5249 248.4 73.5249C250.432 73.5249 251.36 74.8369 251.36 76.7409V81.5889H250.224V76.9969C250.224 75.2849 249.664 74.5329 248.048 74.5329C246.48 74.5329 245.632 75.2689 245.632 77.0289V81.5889ZM256.226 81.7489C254.002 81.7489 252.754 80.1329 252.754 77.6369C252.754 75.1409 253.938 73.5249 256.098 73.5249C257.618 73.5249 258.594 74.3249 258.93 75.1889V70.8689H260.082V81.5889H259.058V80.0689H258.994C258.642 81.0609 257.714 81.7489 256.226 81.7489ZM253.906 77.6369C253.906 80.0529 254.85 80.7569 256.418 80.7569C257.986 80.7569 258.93 79.9409 258.93 78.3249V76.9649C258.93 75.3329 257.986 74.5169 256.418 74.5169C254.866 74.5169 253.906 75.2209 253.906 77.6369ZM267.976 81.7489C265.752 81.7489 264.504 80.1329 264.504 77.6369C264.504 75.1409 265.688 73.5249 267.848 73.5249C269.368 73.5249 270.344 74.3249 270.68 75.1889V70.8689H271.832V81.5889H270.808V80.0689H270.744C270.392 81.0609 269.464 81.7489 267.976 81.7489ZM265.656 77.6369C265.656 80.0529 266.6 80.7569 268.168 80.7569C269.736 80.7569 270.68 79.9409 270.68 78.3249V76.9649C270.68 75.3329 269.736 74.5169 268.168 74.5169C266.616 74.5169 265.656 75.2209 265.656 77.6369ZM274.773 81.5889H273.621V73.5889H274.661V74.9169H274.741C274.997 74.1809 275.765 73.5249 276.933 73.5249C278.565 73.5249 279.189 74.6929 279.189 76.0529V76.5009H278.037V76.2289C278.037 74.9969 277.653 74.5169 276.517 74.5169C275.285 74.5169 274.773 75.0769 274.773 76.3569V81.5889ZM283.875 81.7489C281.555 81.7489 280.035 80.0369 280.035 77.6369C280.035 75.2369 281.555 73.5249 283.875 73.5249C286.179 73.5249 287.651 75.2369 287.651 77.6369C287.651 80.0369 286.179 81.7489 283.875 81.7489ZM283.875 80.7249C285.779 80.7249 286.531 79.6049 286.531 77.6369C286.531 75.6689 285.779 74.5649 283.875 74.5649C281.939 74.5649 281.171 75.6689 281.171 77.6369C281.171 79.6049 281.939 80.7249 283.875 80.7249ZM290.194 84.3729H289.042V73.6849H290.082V75.2209H290.13C290.482 74.2129 291.426 73.5249 292.914 73.5249C295.138 73.5249 296.37 75.1409 296.37 77.6529C296.37 80.1329 295.202 81.7489 293.042 81.7489C291.522 81.7489 290.546 80.9489 290.194 80.0849V84.3729ZM290.194 78.3249C290.194 79.9409 291.154 80.7569 292.722 80.7569C294.258 80.7569 295.218 80.0529 295.218 77.6529C295.218 75.2209 294.274 74.5169 292.722 74.5169C291.154 74.5169 290.194 75.3329 290.194 76.9649V78.3249Z" fill="#515B6F"/>
<path d="M46.8896 111.722C43.9136 111.722 42.6176 110.154 42.6176 108.314V108.074H43.7536V108.25C43.7536 109.738 44.5376 110.666 46.9216 110.666C48.6976 110.666 49.5296 110.074 49.5296 108.842C49.5296 107.642 48.9856 107.194 47.3696 106.842L45.5136 106.426C43.8336 106.074 42.6816 105.306 42.6816 103.578C42.6816 102.026 43.9616 100.682 46.5056 100.682C49.2896 100.682 50.5056 102.378 50.5056 104.122V104.33H49.3696V104.154C49.3696 102.682 48.6016 101.738 46.4896 101.738C44.7136 101.738 43.8336 102.33 43.8336 103.498C43.8336 104.714 44.4256 105.066 45.9936 105.434L47.8496 105.866C49.6256 106.266 50.6816 107.098 50.6816 108.778C50.6816 110.41 49.4176 111.722 46.8896 111.722ZM56.818 111.562H55.298L51.09 100.842H52.37L56.05 110.282H56.13L59.778 100.842H61.026L56.818 111.562ZM66.0374 111.722C63.0454 111.722 61.2694 109.578 61.2694 106.202C61.2694 102.858 63.1574 100.682 66.2614 100.682C68.8374 100.682 70.6454 102.186 70.6454 104.57V104.714H69.4294V104.57C69.4294 102.762 68.4214 101.786 66.1654 101.786C63.6214 101.786 62.4854 103.226 62.4854 106.202C62.4854 109.178 63.6374 110.618 66.2454 110.618C68.4534 110.618 69.5414 109.722 69.5414 107.802V107.258H65.8294V106.25H70.6614V111.562H69.6214V109.786H69.5574C69.0454 111.002 67.7174 111.722 66.0374 111.722ZM72.15 113.034H71.798V112.282H72.118C72.342 112.282 72.454 112.234 72.454 111.962V111.562H71.83V109.338H73.238V111.946C73.238 112.698 72.822 113.034 72.15 113.034ZM78.8374 111.562H77.7014V100.842H81.8934C84.1334 100.842 85.7814 102.138 85.7814 104.362C85.7814 106.618 84.1334 107.898 81.8934 107.898H78.8374V111.562ZM82.0694 101.882H78.8374V106.858H82.0694C83.8134 106.858 84.6294 106.122 84.6294 104.362C84.6294 102.618 83.8134 101.882 82.0694 101.882ZM88.1967 111.562H87.0607V100.842H88.2927L93.1087 107.978L94.2447 109.658H94.3407V100.842H95.4927V111.562H94.2447L89.3967 104.426L88.2767 102.778H88.1967V111.562ZM101.787 111.722C98.7954 111.722 97.0194 109.578 97.0194 106.202C97.0194 102.858 98.9074 100.682 102.011 100.682C104.587 100.682 106.395 102.186 106.395 104.57V104.714H105.179V104.57C105.179 102.762 104.171 101.786 101.915 101.786C99.3714 101.786 98.2354 103.226 98.2354 106.202C98.2354 109.178 99.3874 110.618 101.995 110.618C104.203 110.618 105.291 109.722 105.291 107.802V107.258H101.579V106.25H106.411V111.562H105.371V109.786H105.307C104.795 111.002 103.467 111.722 101.787 111.722ZM107.9 113.034H107.548V112.282H107.868C108.092 112.282 108.204 112.234 108.204 111.962V111.562H107.58V109.338H108.988V111.946C108.988 112.698 108.572 113.034 107.9 113.034ZM116.475 111.722C113.771 111.722 112.699 110.074 112.699 107.946V107.29H113.899V108.058C113.899 109.754 114.427 110.618 116.443 110.618C118.459 110.618 118.987 109.754 118.987 108.058V100.842H120.187V107.946C120.187 110.074 119.115 111.722 116.475 111.722ZM123.29 111.562H122.154V100.842H126.346C128.586 100.842 130.234 102.138 130.234 104.362C130.234 106.618 128.586 107.898 126.346 107.898H123.29V111.562ZM126.522 101.882H123.29V106.858H126.522C128.266 106.858 129.082 106.122 129.082 104.362C129.082 102.618 128.266 101.882 126.522 101.882ZM135.99 111.722C132.998 111.722 131.222 109.578 131.222 106.202C131.222 102.858 133.11 100.682 136.214 100.682C138.79 100.682 140.598 102.186 140.598 104.57V104.714H139.382V104.57C139.382 102.762 138.374 101.786 136.118 101.786C133.574 101.786 132.438 103.226 132.438 106.202C132.438 109.178 133.59 110.618 136.198 110.618C138.406 110.618 139.494 109.722 139.494 107.802V107.258H135.782V106.25H140.614V111.562H139.574V109.786H139.51C138.998 111.002 137.67 111.722 135.99 111.722ZM148.859 111.722C146.539 111.722 145.019 110.01 145.019 107.61C145.019 105.21 146.539 103.498 148.859 103.498C151.163 103.498 152.635 105.21 152.635 107.61C152.635 110.01 151.163 111.722 148.859 111.722ZM148.859 110.698C150.763 110.698 151.515 109.578 151.515 107.61C151.515 105.642 150.763 104.538 148.859 104.538C146.923 104.538 146.155 105.642 146.155 107.61C146.155 109.578 146.923 110.698 148.859 110.698ZM155.179 111.562H154.027V103.562H155.067V104.89H155.147C155.403 104.154 156.171 103.498 157.339 103.498C158.971 103.498 159.595 104.666 159.595 106.026V106.474H158.443V106.202C158.443 104.97 158.059 104.49 156.923 104.49C155.691 104.49 155.179 105.05 155.179 106.33V111.562ZM168.303 111.722C165.311 111.722 163.535 109.578 163.535 106.202C163.535 102.858 165.423 100.682 168.527 100.682C171.103 100.682 172.911 102.186 172.911 104.57V104.714H171.695V104.57C171.695 102.762 170.687 101.786 168.431 101.786C165.887 101.786 164.751 103.226 164.751 106.202C164.751 109.178 165.903 110.618 168.511 110.618C170.719 110.618 171.807 109.722 171.807 107.802V107.258H168.095V106.25H172.927V111.562H171.887V109.786H171.823C171.311 111.002 169.983 111.722 168.303 111.722ZM175.853 111.562H174.717V100.842H175.853V111.562ZM179.04 111.562H177.904V100.842H185.072V101.882H179.04V105.962H184.832V107.018H179.04V111.562ZM192.938 112.122L192.346 112.714C190.938 111.37 189.306 109.322 189.306 106.202C189.306 103.082 190.938 101.034 192.346 99.6895L192.938 100.282C191.562 101.818 190.538 103.29 190.538 106.202C190.538 109.114 191.562 110.586 192.938 112.122ZM195.194 111.562H194.042V103.658H195.082V105.29H195.13C195.434 104.458 196.266 103.498 197.898 103.498C199.338 103.498 200.202 104.186 200.554 105.306H200.602C200.922 104.458 201.738 103.498 203.37 103.498C205.402 103.498 206.33 104.81 206.33 106.698V111.562H205.194V106.97C205.194 105.258 204.618 104.506 203.018 104.506C201.514 104.506 200.762 105.242 200.762 107.002V111.562H199.626V106.97C199.626 105.258 199.066 104.506 197.466 104.506C195.962 104.506 195.194 105.242 195.194 107.002V111.562ZM210.218 111.722C208.778 111.722 207.69 110.986 207.69 109.658C207.69 108.282 208.714 107.674 210.442 107.434L213.226 107.05V106.474C213.226 105.082 212.634 104.522 211.146 104.522C209.706 104.522 209.034 105.082 209.034 106.346V106.586H207.93V106.458C207.93 104.81 209.194 103.498 211.242 103.498C213.354 103.498 214.314 104.858 214.314 106.618V111.562H213.274V110.106L213.194 110.09C212.73 111.002 211.722 111.722 210.218 111.722ZM208.81 109.578C208.81 110.394 209.322 110.762 210.538 110.762C211.898 110.762 213.226 110.058 213.226 108.186V107.914L210.538 108.298C209.274 108.474 208.81 108.73 208.81 109.578ZM216.369 111.562H215.073L218.065 107.562V107.482L215.073 103.658H216.401L218.929 106.874H219.025L221.521 103.658H222.833L219.825 107.514V107.61L222.833 111.562H221.505L218.961 108.202H218.881L216.369 111.562ZM225.097 111.562H223.689V109.338H225.097V111.562ZM236.185 111.562H235.033V109.178H228.809V108.346L234.841 100.842H236.185V108.138H237.945V109.178H236.185V111.562ZM230.281 108.138H235.033V102.282H234.953L230.281 108.058V108.138ZM243.299 111.722C240.627 111.722 238.867 109.642 238.867 106.202C238.867 102.762 240.627 100.682 243.299 100.682C245.987 100.682 247.731 102.762 247.731 106.202C247.731 109.642 245.987 111.722 243.299 111.722ZM243.299 110.618C245.411 110.618 246.531 109.274 246.531 106.202C246.531 103.13 245.411 101.786 243.299 101.786C241.203 101.786 240.083 103.13 240.083 106.202C240.083 109.274 241.203 110.618 243.299 110.618ZM253.909 111.722C251.237 111.722 249.477 109.642 249.477 106.202C249.477 102.762 251.237 100.682 253.909 100.682C256.597 100.682 258.341 102.762 258.341 106.202C258.341 109.642 256.597 111.722 253.909 111.722ZM253.909 110.618C256.021 110.618 257.141 109.274 257.141 106.202C257.141 103.13 256.021 101.786 253.909 101.786C251.813 101.786 250.693 103.13 250.693 106.202C250.693 109.274 251.813 110.618 253.909 110.618ZM263.572 111.562H262.276L265.268 107.562V107.482L262.276 103.658H263.604L266.132 106.874H266.228L268.724 103.658H270.036L267.028 107.514V107.61L270.036 111.562H268.708L266.164 108.202H266.084L263.572 111.562ZM280.825 111.562H279.673V109.178H273.449V108.346L279.481 100.842H280.825V108.138H282.585V109.178H280.825V111.562ZM274.921 108.138H279.673V102.282H279.593L274.921 108.058V108.138ZM287.94 111.722C285.268 111.722 283.508 109.642 283.508 106.202C283.508 102.762 285.268 100.682 287.94 100.682C290.628 100.682 292.372 102.762 292.372 106.202C292.372 109.642 290.628 111.722 287.94 111.722ZM287.94 110.618C290.052 110.618 291.172 109.274 291.172 106.202C291.172 103.13 290.052 101.786 287.94 101.786C285.844 101.786 284.724 103.13 284.724 106.202C284.724 109.274 285.844 110.618 287.94 110.618ZM298.549 111.722C295.877 111.722 294.117 109.642 294.117 106.202C294.117 102.762 295.877 100.682 298.549 100.682C301.237 100.682 302.981 102.762 302.981 106.202C302.981 109.642 301.237 111.722 298.549 111.722ZM298.549 110.618C300.661 110.618 301.781 109.274 301.781 106.202C301.781 103.13 300.661 101.786 298.549 101.786C296.453 101.786 295.333 103.13 295.333 106.202C295.333 109.274 296.453 110.618 298.549 110.618ZM305.804 114.346H304.652V103.658H305.692V105.194H305.74C306.092 104.186 307.036 103.498 308.524 103.498C310.748 103.498 311.98 105.114 311.98 107.626C311.98 110.106 310.812 111.722 308.652 111.722C307.132 111.722 306.156 110.922 305.804 110.058V114.346ZM305.804 108.298C305.804 109.914 306.764 110.73 308.332 110.73C309.868 110.73 310.828 110.026 310.828 107.626C310.828 105.194 309.884 104.49 308.332 104.49C306.764 104.49 305.804 105.306 305.804 106.938V108.298ZM313.619 111.562H312.323L315.315 107.562V107.482L312.323 103.658H313.651L316.179 106.874H316.275L318.771 103.658H320.083L317.075 107.514V107.61L320.083 111.562H318.755L316.211 108.202H316.131L313.619 111.562ZM320.838 100.282L321.43 99.6895C322.838 101.034 324.47 103.082 324.47 106.202C324.47 109.322 322.838 111.37 321.43 112.714L320.838 112.122C322.214 110.586 323.238 109.114 323.238 106.202C323.238 103.29 322.214 101.818 320.838 100.282Z" fill="#7C8493"/>
<defs>
<clipPath id="clip0_181_15705">
<rect width="31.7808" height="31.7808" fill="white" transform="translate(167.959 23.8633)"/>
</clipPath>
</defs>
</svg>
