<svg width="33" height="33" viewBox="0 0 33 33" fill="none" xmlns="http://www.w3.org/2000/svg">
<g clip-path="url(#clip0_181_15716)">
<path d="M20.8223 11.7305H20.8356" stroke="black" stroke-width="1.9863" stroke-linecap="round" stroke-linejoin="round"/>
<path d="M23.4705 6.43359H10.2285C8.03445 6.43359 6.25586 8.21219 6.25586 10.4062V23.6482C6.25586 25.8422 8.03445 27.6208 10.2285 27.6208H23.4705C25.6645 27.6208 27.4431 25.8422 27.4431 23.6482V10.4062C27.4431 8.21219 25.6645 6.43359 23.4705 6.43359Z" stroke="black" stroke-width="1.9863" stroke-linecap="round" stroke-linejoin="round"/>
<path d="M6.25586 20.9993L11.5527 15.7025C12.1566 15.1214 12.8416 14.8154 13.539 14.8154C14.2363 14.8154 14.9214 15.1214 15.5253 15.7025L22.1463 22.3235" stroke="black" stroke-width="1.9863" stroke-linecap="round" stroke-linejoin="round"/>
<path d="M19.498 19.6761L20.8222 18.3519C21.4262 17.7708 22.1112 17.4648 22.8085 17.4648C23.5059 17.4648 24.1909 17.7708 24.7949 18.3519L27.4433 21.0003" stroke="black" stroke-width="1.9863" stroke-linecap="round" stroke-linejoin="round"/>
</g>
<defs>
<clipPath id="clip0_181_15716">
<rect width="31.7808" height="31.7808" fill="white" transform="translate(0.958984 0.863281)"/>
</clipPath>
</defs>
</svg>
