<svg width="196" height="196" viewBox="0 0 196 196" fill="none" xmlns="http://www.w3.org/2000/svg">
<circle cx="98" cy="98" r="98" fill="#F8F8F8"/>
<circle cx="97.5" cy="55.5" r="27.5" fill="#EBEBEB"/>
<path d="M144 133.5C144 159.181 123.181 148.5 97.5 148.5C71.8188 148.5 51 159.181 51 133.5C51 107.819 71.8188 87 97.5 87C123.181 87 144 107.819 144 133.5Z" fill="#EBEBEB"/>
<path d="M99.1244 91.5681L104.428 96.8715L92.0533 109.246H86.75V103.942L99.1244 91.5681ZM100.892 89.8004L103.544 87.1487C104.032 86.6606 104.823 86.6606 105.311 87.1487L108.847 90.6842C109.335 91.1724 109.335 91.9639 108.847 92.452L106.195 95.1037L100.892 89.8004Z" fill="black"/>
</svg>
