<svg width="24" height="25" viewBox="0 0 24 25" fill="none" xmlns="http://www.w3.org/2000/svg">
<g clip-path="url(#clip0_181_16209)">
<path fill-rule="evenodd" clip-rule="evenodd" d="M12 4.71875C7.58172 4.71875 4 8.30047 4 12.7188C4 17.137 7.58172 20.7188 12 20.7188C16.4183 20.7188 20 17.137 20 12.7188C20 8.30047 16.4183 4.71875 12 4.71875ZM2 12.7188C2 7.1959 6.47715 2.71875 12 2.71875C17.5228 2.71875 22 7.1959 22 12.7188C22 18.2416 17.5228 22.7188 12 22.7188C6.47715 22.7188 2 18.2416 2 12.7188Z" fill="#56CDAD"/>
<path fill-rule="evenodd" clip-rule="evenodd" d="M15.7071 10.0116C16.0976 10.4022 16.0976 11.0353 15.7071 11.4259L11.7071 15.4259C11.3166 15.8164 10.6834 15.8164 10.2929 15.4259L8.29289 13.4259C7.90237 13.0353 7.90237 12.4022 8.29289 12.0116C8.68342 11.6211 9.31658 11.6211 9.70711 12.0116L11 13.3045L14.2929 10.0116C14.6834 9.62112 15.3166 9.62112 15.7071 10.0116Z" fill="#56CDAD"/>
</g>
<defs>
<clipPath id="clip0_181_16209">
<rect width="24" height="24" fill="white" transform="translate(0 0.71875)"/>
</clipPath>
</defs>
</svg>
